<svg width="137" height="137" viewBox="0 0 137 137" fill="none" xmlns="http://www.w3.org/2000/svg">
<rect width="137" height="137" rx="12" fill="#D2ABE4"/>
<path fill-rule="evenodd" clip-rule="evenodd" d="M38.3226 38.3264L23 53.6496V83.4892L38.0387 98.5574C46.3099 106.845 53.1644 113.626 53.2677 113.626C53.371 113.626 53.4581 100.045 53.4581 83.4472V53.2688L68.3096 38.42C76.4808 30.2485 83.1643 23.4389 83.1643 23.284C83.1643 23.1291 76.5228 23 68.4032 23H53.6421L38.3226 38.3264ZM83.9162 53.6367V83.728L68.784 98.864L53.6517 114H83.5871L98.7935 98.7833L114 83.5666V53.6593L98.9581 38.6007L83.9162 23.5422V53.6335" fill="#474E21"/>
</svg>
