<svg width="75" height="20" viewBox="0 0 75 20" fill="none" xmlns="http://www.w3.org/2000/svg">
<path fill-rule="evenodd" clip-rule="evenodd" d="M45.6258 5.30888C44.4372 5.30888 43.5007 5.56226 42.5642 6.10521C42.5642 3.37838 42.5642 0.844595 42.6603 0L36.8853 1.03764V1.53234L37.4736 1.62886C38.266 1.77365 38.5061 2.22008 38.6622 3.26979C38.8063 5.35714 38.7582 16.3248 38.6622 18.1588C40.199 18.5087 41.8198 18.75 43.4527 18.75C47.991 18.75 50.7165 15.9146 50.7165 11.4503C50.7645 7.89093 48.5313 5.30888 45.6258 5.30888ZM43.6448 17.7606C43.2966 17.7606 42.8524 17.7606 42.6122 17.6641C42.5162 16.4696 42.4682 11.4141 42.5162 6.93774C43.0084 6.79295 43.3566 6.68436 43.8009 6.68436C45.6738 6.68436 46.7184 8.9165 46.7184 11.6433C46.7064 15.1303 45.4217 17.7606 43.6448 17.7606Z" fill="#474E21"/>
<path fill-rule="evenodd" clip-rule="evenodd" d="M15.32 0.307373H0V1.10639L0.854503 1.20324C2.01419 1.34851 2.41702 2.05068 2.61234 3.69714C2.86869 6.78425 2.75883 12.4137 2.61234 15.1013C2.46585 16.7477 2.01419 17.4862 0.854503 17.5952L0 17.7405V18.4426H9.839V17.7405L8.78918 17.5952C7.62949 17.4983 7.22666 16.7477 7.03134 15.1013C6.93369 13.9512 6.88485 12.1594 6.88485 9.91978L8.9967 10.0166C10.3029 10.0166 10.901 11.0578 11.1574 12.5105H11.963V6.33631H11.1574C10.901 7.77696 10.3029 8.83021 8.9967 8.83021L6.88485 8.92706C6.88485 5.98523 6.98251 3.24921 7.03134 1.60275H10.0953C12.4513 1.60275 13.6598 3.0434 14.5143 5.63415L15.3689 5.37991L15.32 0.307373Z" fill="#474E21"/>
<path fill-rule="evenodd" clip-rule="evenodd" d="M19.9471 5.2254C24.2882 5.2254 26.4344 8.20516 26.4344 12.1414C26.4344 15.8692 24.0456 19.0574 19.7046 19.0574C15.3635 19.0574 13.2172 16.0776 13.2172 12.1414C13.2172 8.35231 15.6545 5.2254 19.9471 5.2254ZM19.6924 6.08377C17.8008 6.08377 17.3036 8.70792 17.3036 12.0923C17.3036 15.4277 18.1525 18.1009 19.8986 18.1009C21.8994 18.1009 22.3965 15.4768 22.3965 12.0923C22.3965 8.80602 21.5477 6.08377 19.6924 6.08377Z" fill="#474E21"/>
<path fill-rule="evenodd" clip-rule="evenodd" d="M51.9467 12.0892C51.9467 8.58531 54.1937 5.2254 58.5904 5.2254C62.234 5.2254 63.9344 7.88933 63.9344 11.3932H55.894C55.7969 14.5492 57.3394 16.8771 60.4851 16.8771C61.8818 16.8771 62.5863 16.5291 63.4364 15.9411L63.7887 16.3851C62.9385 17.5731 61.0438 18.749 58.5904 18.749C54.7402 18.809 51.9467 16.0371 51.9467 12.0892ZM55.9426 10.5053L59.9871 10.4093C59.9871 8.68131 59.732 6.11338 58.2381 6.11338C56.7928 6.11338 56.0398 8.53731 55.9426 10.5053Z" fill="#474E21"/>
<path fill-rule="evenodd" clip-rule="evenodd" d="M74.2179 5.92391C73.1831 5.47831 71.8475 5.2254 70.2592 5.2254C67.0946 5.2254 65.1093 7.10415 65.1093 9.33216C65.1093 11.5602 66.5411 12.4995 68.6228 13.198C70.7525 13.9929 71.3421 14.583 71.3421 15.5706C71.3421 16.6063 70.548 17.5577 69.2124 17.5577C67.5759 17.5577 66.3847 16.6183 65.4462 14.0411L64.8566 14.1856L64.9528 17.9551C65.9876 18.4007 67.8767 18.75 69.5011 18.75C72.8702 18.75 75 17.0158 75 14.3903C75 12.6079 74.0615 11.5602 71.8354 10.7292C69.465 9.7898 68.5626 9.18764 68.5626 8.05557C68.5626 6.91146 69.3567 6.17682 70.3434 6.17682C71.8836 6.17682 72.9184 7.1162 73.7125 9.45259L74.3021 9.30807L74.2179 5.92391Z" fill="#474E21"/>
<path fill-rule="evenodd" clip-rule="evenodd" d="M37.8074 5.61568C36.3714 4.75963 33.789 5.1632 32.4013 8.3306L32.4978 5.26103L26.7418 6.42282V6.92422L27.3331 7.02206C28.1295 7.11989 28.4795 7.52346 28.5278 8.68525C28.6726 10.8009 28.6243 14.4208 28.5278 16.2797C28.4312 17.3314 28.0813 17.845 27.3331 17.9429L26.7418 18.0407V18.75H34.7303V18.0407L33.6925 17.9429C32.8478 17.845 32.5461 17.3436 32.4978 16.2797C32.353 14.6165 32.353 11.3023 32.4013 9.23557C32.8478 8.63633 34.7303 8.07378 36.4197 9.23557L37.8074 5.61568Z" fill="#474E21"/>
</svg>
