<?xml version="1.0" encoding="UTF-8"?>
<svg id="Layer_2" data-name="Layer 2" xmlns="http://www.w3.org/2000/svg" viewBox="0 0 1061 281.98">
  <defs>
    <style>
      .cls-1 {
        fill: #fff;
        fill-rule: evenodd;
      }
    </style>
  </defs>
  <g id="svg">
    <path class="cls-1" d="M47.48,47.49L0,94.97v92.46l46.6,46.69c25.63,25.68,46.87,46.69,47.19,46.69s.59-42.08,.59-93.51V93.79l46.02-46.01C165.72,22.46,186.43,1.36,186.43,.88s-20.58-.88-45.74-.88h-45.74L47.48,47.49m141.28,47.44v93.24l-46.89,46.9-46.89,46.9h92.76l47.12-47.15,47.12-47.15V95l-46.61-46.66L188.76,1.68V94.92M782.42,32.53l-13.98,3.01-.32,20.1-.32,20.1h-37.23v22.14h37.29v35.25c.02,47.52,1.29,54.31,12.42,66.2,9.73,10.4,23.12,15.41,41.18,15.41,21.57,0,39.84-8.69,50.24-23.89,7.99-11.68,8.01-11.44-1.89-18.8l-8.62-6.41-3.46,6.14c-4.35,7.71-12.65,15.09-19.65,17.48-6.88,2.34-18.94,2.36-24.52,.03-5.5-2.3-10.26-6.81-13.47-12.76-2.4-4.45-2.53-6.34-2.88-41.66l-.37-36.99h73.55v-22.14h-73.36l-.31-23.11-.32-23.11-13.98,3.01m-154.83,38.64c-11.37,1.56-27.38,7.2-36.17,12.76-14.33,9.05-25.94,24.86-29.91,40.75-2.53,10.11-2.04,29.29,1,39.03,7.49,24.03,26.34,40.9,53.54,47.91,9.29,2.39,14.24,2.95,26.56,2.98,21.4,.05,38.46-4.12,53.88-13.16,10.05-5.9,23.68-20.04,28-29.06,6.23-13,6.51-12.19-5.22-14.88-18.84-4.31-16.86-4.57-19.93,2.57-5.81,13.47-20.23,24.88-36.97,29.24-8.04,2.09-24.63,2.33-33.38,.47-8.89-1.89-21.26-8.47-27.33-14.54-2.88-2.88-6.9-8.75-8.94-13.05-3.39-7.15-3.7-8.79-3.7-19.46s.31-12.31,3.69-19.44c2.03-4.28,5.84-10.12,8.48-12.98,5.6-6.07,17.85-12.81,26.64-14.65,9.58-2.01,24.65-1.61,32.58,.86,11.58,3.6,22.57,12.43,26.6,21.38,1.1,2.44,2.58,4.43,3.28,4.43,1.66,0,25.32-6.76,25.98-7.42,.84-.84-4.29-10.25-9.13-16.73-14.61-19.57-48.88-31.22-79.52-27.02m-86.23,52.35c-8.44-31.22-37.91-51-78.78-52.87-6.73-.31-15.64-.13-19.81,.4-12.26,1.56-22.01,4.49-33.63,10.1-17.9,8.64-30.2,22.97-35.84,41.79-2.87,9.6-2.87,30.01,0,39.61,5.65,18.84,17.65,32.82,35.68,41.57,6.09,2.95,14.27,6.22,18.19,7.26,16.98,4.51,43.35,4.5,60.35-.01,3.91-1.04,12.05-4.28,18.09-7.21,17.76-8.62,30.07-22.83,35.34-40.78,3.06-10.43,3.25-29.34,.41-39.86Zm-29.58,35.89c-8.38,21.41-31.65,33.44-60.45,31.25-17.78-1.35-29.8-6.67-39.78-17.58-8.2-8.97-11.09-16.89-11.09-30.34s2.9-21.36,11.01-30.25c8.5-9.29,20.08-15.17,34.21-17.37,7.62-1.18,26.9,.33,34.55,2.71,15.57,4.84,28.75,17.24,32.66,30.75,2.28,7.86,1.71,23.64-1.11,30.83Zm527.15-67.98c-7.97-6.99-24.65-15.1-36.87-17.92-11.66-2.69-29.89-3.78-41.39-2.47-35.61,4.04-61.42,23.17-70.02,51.9-2.88,9.6-2.88,30.01,0,39.61,8.89,29.69,34.86,48.24,72.5,51.81,29.06,2.75,58.8-5.35,76.34-20.79,6.19-5.44,14.19-17.22,17.35-25.53,1.2-3.16,2.78-10.2,3.5-15.62,3.13-23.49-4.99-46.6-21.41-60.99Zm-9.94,68.5c-3.06,7.81-12.06,18.22-19.55,22.61-20.91,12.25-56.02,10.74-74.15-3.18-11.8-9.06-17.45-20.68-17.52-36.03-.06-12.26,1.45-17.63,7.46-26.64,7.27-10.88,19.7-18.24,35.77-21.18,8.83-1.61,28.09-.43,35.92,2.21,15.55,5.25,27.17,15.33,32.07,27.84,3.7,9.42,3.7,24.94,0,34.37Z"/>
  </g>
</svg>