<svg width="122" height="17" viewBox="0 0 122 17" fill="none" xmlns="http://www.w3.org/2000/svg">
<path d="M8.33558 5.14472V16.514H4.19614V5.14472H0V1.51562H12.5317V5.14472H8.33558Z" fill="#474E21"/>
<path d="M22.2283 12.006H15.6222C15.7639 13.2535 16.4727 13.7922 17.5218 13.7922C18.5141 13.7922 19.3363 13.5654 20.4421 12.9984L21.9164 15.465C20.5271 16.2872 19.0811 16.7409 17.3233 16.7409C13.9494 16.7409 12.0781 14.3309 12.0781 10.9003C12.0781 7.01603 14.2613 5.03137 17.2099 5.03137C20.1585 5.03137 22.2283 7.07274 22.2283 11.2405C22.2566 11.5808 22.2566 11.8359 22.2283 12.006ZM17.1248 7.92331C16.2459 7.92331 15.7639 8.51871 15.6222 9.62445H18.826C18.6559 8.49035 18.2589 7.92331 17.1248 7.92331Z" fill="#474E21"/>
<path d="M29.4013 16.7692C26.1125 16.7692 24.1278 14.6711 24.1278 10.8719C24.1278 7.41293 25.8857 5.05969 29.4864 5.05969C31.6128 5.05969 32.832 6.05202 33.7959 7.6114L31.1308 9.62441C30.5921 8.63208 30.2236 8.17845 29.4013 8.17845C28.409 8.17845 27.927 9.17078 27.927 10.957C27.927 12.7432 28.4657 13.6504 29.5147 13.6504C30.2519 13.6504 30.7622 13.2535 31.4711 12.2045L33.9094 14.1041C32.6051 16.0037 31.386 16.7692 29.4013 16.7692Z" fill="#474E21"/>
<path d="M42.5285 16.5424V10.1631C42.5285 8.71714 42.0465 8.32021 41.2526 8.32021C40.4588 8.32021 39.9484 8.68879 39.9484 10.1348V16.5424H36.0925V2.47963L39.9484 0.948608V6.08038C40.6572 5.54168 41.4511 5.08805 42.7837 5.08805C45.2503 5.08805 46.4128 6.73248 46.4128 9.68112V16.5424H42.5285Z" fill="#474E21"/>
<path d="M55.6272 16.7692C51.1759 16.7692 48.7943 13.4803 48.7943 9.05735C48.7943 4.23746 51.6295 1.34552 55.6272 1.34552C59.313 1.34552 60.759 2.93325 61.808 5.76848L58.0372 7.21445C57.4985 5.82519 56.9881 4.94626 55.6272 4.94626C53.8977 4.94626 53.1606 6.67575 53.1606 9.05735C53.1606 11.4389 53.8977 13.1684 55.6839 13.1684C56.9881 13.1684 57.5552 12.4596 58.349 11.042L61.8647 12.9133C60.8724 14.8696 59.1996 16.7692 55.6272 16.7692Z" fill="#474E21"/>
<path d="M71.3345 9.53939C70.8525 9.00069 70.2854 8.60376 69.5483 8.60376C68.6126 8.60376 68.0172 9.0574 68.0172 10.4183V16.5424H64.1613V5.31489H68.0172V6.13711C68.6693 5.48501 69.4348 5.08807 70.4272 5.08807C71.2494 5.08807 71.7881 5.28654 72.2417 5.57006L71.3345 9.53939Z" fill="#474E21"/>
<path d="M80.4922 16.5424V15.8052C79.8117 16.3439 78.9895 16.7975 77.6853 16.7975C75.2187 16.7975 74.0562 15.1531 74.0562 12.2045V5.3432H77.9405V11.7225C77.9405 13.1684 78.4225 13.5654 79.2163 13.5654C80.0102 13.5654 80.4922 13.1968 80.4922 11.7508V5.3432H84.3765V16.5707H80.4922V16.5424Z" fill="#474E21"/>
<path d="M93.591 16.5424V10.1631C93.591 8.71714 93.109 8.32021 92.3152 8.32021C91.5213 8.32021 91.0109 8.68879 91.0109 10.1348V16.5424H87.155V5.31486H91.0109V6.05202C91.7198 5.51333 92.5136 5.05969 93.8462 5.05969C96.3128 5.05969 97.4753 6.70413 97.4753 9.65277V16.514H93.591V16.5424Z" fill="#474E21"/>
<path d="M104.989 16.7692C101.7 16.7692 99.715 14.6711 99.715 10.8719C99.715 7.41293 101.473 5.05969 105.074 5.05969C107.2 5.05969 108.419 6.05202 109.383 7.6114L106.718 9.62441C106.179 8.63208 105.811 8.17845 104.989 8.17845C103.996 8.17845 103.514 9.17078 103.514 10.957C103.514 12.7432 104.053 13.6504 105.102 13.6504C105.839 13.6504 106.349 13.2535 107.058 12.2045L109.497 14.1041C108.192 16.0037 106.973 16.7692 104.989 16.7692Z" fill="#474E21"/>
<path d="M118.116 16.5424V10.1631C118.116 8.71714 117.634 8.32021 116.84 8.32021C116.046 8.32021 115.536 8.68879 115.536 10.1348V16.5424H111.68V2.47963L115.536 0.948608V6.08038C116.244 5.54168 117.038 5.08805 118.371 5.08805C120.838 5.08805 122 6.73248 122 9.68112V16.5424H118.116Z" fill="#474E21"/>
</svg>
