<svg width="206" height="17" viewBox="0 0 206 17" fill="none" xmlns="http://www.w3.org/2000/svg">
<path d="M29.9806 16.8759H21.1851V16.2494H21.6568C22.2397 16.2494 22.5832 15.9799 22.5832 15.2907V1.75736C22.5832 1.06811 22.2397 0.799974 21.6568 0.799974H21.1851V0.167643H29.9806V5.91109H29.3976V5.8475C29.3976 2.44528 28.3357 0.902694 26.39 0.902694H24.9466V7.83432H25.3143C26.4115 7.83432 26.9257 6.81334 26.9257 4.66021V4.59663H27.51V11.8262H26.9257V11.783C26.9257 9.67306 26.4344 8.58227 25.3143 8.58227H24.9466V16.1467H26.3016C28.2258 16.1467 29.3976 14.3257 29.3976 11.2228V11.1574H29.9806V16.8759ZM20.6246 16.8759H15.4624V16.2494H15.9158C16.4941 16.2494 16.8618 15.9799 16.8618 15.2907V8.72901H13.0972V15.2902C13.0972 15.9821 13.4636 16.2489 14.0447 16.2489H14.498V16.8755H9.33579V16.2489H9.78593C10.3689 16.2489 10.7334 15.9795 10.7334 15.2902V1.75736C10.7334 1.06811 10.3689 0.799974 9.78593 0.799974H9.33579V0.167643H14.498V0.800419H14.0447C13.4631 0.800419 13.0972 1.06856 13.0972 1.75781V7.83432H16.8618V1.75736C16.8618 1.06811 16.4941 0.799974 15.9158 0.799974H15.4624V0.167643H20.6246V0.800419H20.1745C19.5929 0.800419 19.2284 1.06856 19.2284 1.75781V15.2907C19.2284 15.9826 19.5929 16.2494 20.1745 16.2494H20.6246V16.8759ZM9.05324 5.952H8.47351V5.88975C8.47351 3.20034 7.4221 0.90225 6.19531 0.90225H5.67785V15.2916C5.67785 15.9821 6.04557 16.2489 6.62393 16.2489H7.16108V16.8755H1.85232V16.2489H2.36657C2.94631 16.2489 3.31128 15.9795 3.31128 15.2916V0.90225H2.85976C1.63297 0.90225 0.581569 3.05538 0.581569 5.88975V5.952H0V0.167199H9.05324V5.952ZM74.1299 16.8759H65.5909V16.2494H66.064C66.6469 16.2494 67.01 15.999 67.01 15.3116V1.73513C67.01 1.04899 66.6469 0.799974 66.064 0.799974H65.5909V0.167643H70.7545V0.800419H70.2998C69.7201 0.800419 69.3537 1.04944 69.3537 1.73557V16.1471H70.6263C72.9411 16.1471 73.547 13.5778 73.547 11.201V11.1374H74.1299V16.8759ZM49.7187 0.799529H49.546C48.7176 0.799529 48.2931 0.944939 47.9987 2.31988L44.86 17H43.8897L41.932 7.39676H41.9105L39.9117 17H38.9427L35.8663 1.94324C35.6708 0.985849 35.3873 0.799085 34.5127 0.799085H34.4486V0.166754H39.0933V0.799529H39.0063C38.3382 0.799529 38.1702 0.986294 38.1702 1.42474C38.1702 1.52257 38.1885 1.71957 38.2127 1.83963L40.1704 12.0343H40.2102L41.4796 5.32501L40.8156 1.94368C40.6508 1.10947 40.4539 0.799529 39.7596 0.799529H39.6543V0.166754H44.2542V0.799529H44.1704C43.3525 0.799529 43.1387 1.07968 43.1373 1.65153C43.1373 1.8085 43.1616 1.98326 43.2 2.17447L45.1595 11.908H45.2021L47.0517 2.15224C47.0792 2.00994 47.0961 1.81606 47.0961 1.69289C47.0961 1.08812 46.8671 0.799529 45.9549 0.799529H45.8254V0.166754H49.7196V0.799529H49.7187ZM65.269 16.8759H52.1475V16.2494H52.2574C53.1472 16.2494 53.4201 16.0195 53.4201 15.541C53.4201 15.4063 53.3912 15.2271 53.356 15.0359L52.9425 12.8267H50.0186L49.6129 15.0359C49.5749 15.2435 49.5474 15.3943 49.5474 15.541C49.5474 16.0595 49.7562 16.2494 50.6432 16.2494H50.7288V16.8759H47.0512V16.2494H47.2449C47.9987 16.2494 48.4291 16.0791 48.6215 15.0963L51.6104 0H52.7089L55.7853 15.0354C55.9685 15.9439 56.4507 16.2489 56.8596 16.2489H57.2044C57.786 16.2489 58.1505 15.9986 58.1505 15.3111V1.73513C58.1505 1.04899 57.786 0.799974 57.2044 0.799974H56.7529V0.167199H61.9137V0.799974H61.4393C60.8596 0.799974 60.4933 1.04899 60.4933 1.73513V16.1467H61.7626C64.0834 16.1467 64.6865 13.5951 64.6865 11.1814V11.1178H65.2694L65.269 16.8759ZM52.773 12.0543L51.4821 4.66021H51.4377L50.1482 12.0543H52.773ZM135.149 5.952H134.566V5.88841C134.566 3.20034 133.518 0.903584 132.287 0.903584H131.771V15.2916C131.771 15.9804 132.136 16.2516 132.717 16.2516H133.194V16.8737H127.964V16.2516H128.459C129.041 16.2516 129.406 15.979 129.406 15.2916V0.903584H128.954C127.723 0.903584 126.676 3.05671 126.676 5.88841V5.952H126.093V0.167199H135.15V5.952H135.149ZM125.342 16.8737H116.545V16.2516H117.019C117.599 16.2516 117.944 15.979 117.944 15.2916V1.75825C117.944 1.06945 117.599 0.798195 117.019 0.798195H116.545V0.166754H125.342V5.9102H124.762V5.84795C124.762 2.44439 123.696 0.903139 121.751 0.903139H120.309V7.83343H120.674C121.772 7.83343 122.288 6.80489 122.288 4.65933V4.59707H122.868V11.8266H122.288V11.7853C122.288 9.67217 121.793 8.58449 120.674 8.58449H120.309V16.1444H121.663C123.586 16.1444 124.762 14.3262 124.762 11.2205V11.1596H125.342V16.8737ZM115.965 16.8737H107.168V16.2516H107.641C108.223 16.2516 108.567 15.979 108.567 15.2916V1.75825C108.567 1.06945 108.223 0.798195 107.641 0.798195H107.168V0.166754H115.965V5.9102H115.382V5.84795C115.382 2.44439 114.32 0.903139 112.37 0.903139H110.929V7.83343H111.295C112.391 7.83343 112.911 6.80489 112.911 4.65933V4.59707H113.491V11.8266H112.911V11.7853C112.911 9.67217 112.412 8.58449 111.295 8.58449H110.929V16.1444H112.284C114.208 16.1444 115.382 14.3262 115.382 11.2205V11.1596H115.965V16.8737ZM96.1563 5.952H95.5779V5.88841C95.5779 3.20034 94.5265 0.903584 93.2965 0.903584H92.7836V15.2916C92.7836 15.9804 93.1454 16.2516 93.7265 16.2516H94.178V16.8737H88.9746V16.2516H89.4673C90.0502 16.2516 90.4148 15.979 90.4148 15.2916V0.903584H89.9632C88.7332 0.903584 87.685 3.05671 87.685 5.88841V5.952H87.1035V0.167199H96.1553V5.952H96.1563ZM87.0819 12.8276C87.0819 15.7807 85.237 16.9987 83.081 16.9987C81.5167 16.9987 80.8015 16.4993 80.0491 15.9986L79.6434 16.8728H79.1918V11.1369H79.7716V11.3059C79.7716 15.3334 81.8606 16.2507 82.9102 16.2507C84.4379 16.2507 85.2099 15.1586 85.2099 13.5951C85.2099 11.6808 83.9694 10.276 82.1766 8.96469C80.556 7.76895 79.0609 6.30507 79.0609 3.86913C79.0609 1.35137 80.6554 0.0417996 82.5659 0.0417996C84.1558 0.0417996 84.8944 0.674575 85.3185 1.02854L85.7503 0.210777H86.1789V5.97335H85.5992V5.80748C85.5992 2.68229 84.6302 0.799085 82.7184 0.799085C81.5557 0.799085 80.866 1.62441 80.866 2.95043C80.866 4.5197 81.8226 5.40994 83.6003 6.7453C85.5667 8.2283 87.0819 9.79179 87.0819 12.8276ZM107.041 14.5961C107.041 15.999 106.491 16.9996 105.084 16.9996C103.67 16.9996 103.075 15.9861 102.976 13.9099L102.826 10.7999C102.745 9.16079 102.097 8.70766 101.126 8.70766H100.501V15.2911C100.501 15.9786 100.781 16.2512 101.361 16.2512H101.92V16.8733H96.7177V16.2512H97.2104C97.792 16.2512 98.1565 15.9786 98.1565 15.2911V1.75781C98.1565 1.06856 97.792 0.79775 97.2104 0.79775H96.7177V0.166309H101.425C104.273 0.166309 106.049 1.58572 106.049 4.22176C106.049 6.98098 104.076 8.02108 102.329 8.35281V8.39417C103.76 8.53913 105.065 9.57968 105.147 11.1592L105.342 14.8042C105.378 15.5361 105.469 15.7496 105.835 15.7496C106.264 15.7496 106.371 15.4352 106.371 14.3462V13.7419H107.041V14.5961ZM103.575 4.2649C103.575 1.65109 102.513 0.902694 101.06 0.902694H100.5V7.93793H101.147C102.663 7.93837 103.575 6.93963 103.575 4.2649ZM206 15.8518C206 16.4815 205.522 16.9987 205.011 16.9987C204.505 16.9987 204.025 16.4815 204.025 15.8518C204.025 15.228 204.504 14.7228 205.011 14.7228C205.522 14.7228 206 15.228 206 15.8518ZM185.68 0.79864H185.219C184.683 0.79864 184.252 1.19307 184.252 2.00772V16.9377H183.411L178.038 3.7842H177.995V15.0336C177.995 15.8532 178.424 16.2503 178.963 16.2503H179.419V16.8742H175.801V16.2503H176.256C176.792 16.2503 177.223 15.8532 177.223 15.0336V1.84007C177.223 1.25621 176.988 0.798195 176.381 0.798195H175.801V0.167199H179.072L183.436 10.9235H183.474V2.00772C183.474 1.18551 183.045 0.79864 182.512 0.79864H182.062V0.167199H185.68V0.79864H185.68ZM146.509 0.79864H146.039C145.455 0.79864 145.091 1.06678 145.091 1.7587V13.4097C145.091 16.0248 143.401 16.9987 141.24 16.9987C139.697 16.9987 138.144 15.7731 138.144 13.4097C138.144 12.1428 138.956 11.5958 139.607 11.5958C140.282 11.5958 140.769 12.0583 140.769 12.8449C140.769 13.8526 140.163 14.2777 139.372 14.3875C139.372 15.2515 140.053 16.2503 141.217 16.2503C142.339 16.2503 142.727 15.6473 142.727 13.8481V1.7587C142.727 1.06811 142.385 0.79864 141.8 0.79864H141.263V0.167199H146.509V0.79864H146.509ZM203.017 16.8742H189.864V16.2503H189.995C190.883 16.2503 191.156 16.0204 191.156 15.5406C191.156 15.4058 191.124 15.2266 191.091 15.0336L190.683 12.8272H187.763L187.355 15.0336C187.317 15.244 187.291 15.3938 187.291 15.5406C187.291 16.0577 187.497 16.2503 188.385 16.2503H188.472V16.8742H184.79V16.2503H184.983C185.745 16.2503 186.174 16.0782 186.367 15.099L189.352 0H190.446L193.524 15.0341C193.709 15.9452 194.194 16.2507 194.608 16.2507H194.951C195.531 16.2507 195.894 15.999 195.894 15.3129V1.73646C195.894 1.04899 195.531 0.79864 194.951 0.79864H194.481V0.167199H199.671V0.79864H199.18C198.598 0.79864 198.232 1.04899 198.232 1.73646V16.1436H199.5C201.821 16.1436 202.427 13.5951 202.427 11.2005V11.1369H203.018L203.017 16.8742ZM190.511 12.0543L189.22 4.66021H189.178L187.892 12.0543H190.511ZM175.714 14.5961C175.714 15.999 175.168 16.9996 173.76 16.9996C172.35 16.9996 171.753 15.9861 171.651 13.9099L171.502 10.7999C171.419 9.15368 170.775 8.70766 169.805 8.70766H169.179V15.2911C169.179 15.9786 169.46 16.2512 170.043 16.2512H170.576V16.8733H165.395V16.2512H165.891C166.472 16.2512 166.832 15.9786 166.832 15.2911V1.75781C166.832 1.07478 166.479 0.79775 165.912 0.79775H165.006C164.47 0.79775 164.147 1.23487 164.147 2.00683V13.138C164.147 15.3578 163.387 16.9996 160.922 16.9996C158.299 16.9996 156.772 15.4392 156.772 13.138V1.75781C156.772 1.06722 156.428 0.79775 155.847 0.79775H155.37V0.166309H160.556V0.79775H160.083C159.497 0.79775 159.159 1.06722 159.159 1.75781V13.2843C159.159 15.163 159.921 16.1649 161.225 16.1649C162.543 16.1649 163.35 15.3351 163.35 13.2843V2.00683C163.35 1.23487 163.05 0.79775 162.511 0.79775H161.975V0.166309H170.105C172.949 0.166309 174.729 1.58572 174.729 4.22176C174.729 6.98098 172.75 8.02108 171.006 8.35281V8.39417C172.437 8.53913 173.742 9.57345 173.827 11.1592L174.021 14.8042C174.057 15.5361 174.149 15.7496 174.513 15.7496C174.942 15.7496 175.05 15.4352 175.05 14.3462V13.7419H175.714V14.5961ZM172.255 4.2649C172.255 1.65109 171.191 0.902694 169.74 0.902694H169.178V7.93793H169.825C171.341 7.93837 172.255 6.93963 172.255 4.2649ZM155.415 8.48088C155.415 13.2287 153.811 16.9996 150.875 16.9996C148.013 16.9996 146.405 13.2287 146.405 8.48088C146.405 3.73484 147.944 0.0422443 150.875 0.0422443C153.776 0.0422443 155.415 3.73484 155.415 8.48088ZM152.749 12.4518V4.55572C152.749 1.66798 152.087 0.79775 150.875 0.79775C149.663 0.79775 149.048 1.62485 149.048 4.59707V12.4283C149.048 15.2124 149.596 16.2512 150.875 16.2512C152.131 16.2512 152.749 15.1444 152.749 12.4518Z" fill="#474E21"/>
</svg>
